<?xml version="1.0" standalone="no"?>
<!DOCTYPE svg PUBLIC "-//W3C//DTD SVG 20010904//EN"
 "http://www.w3.org/TR/2001/REC-SVG-20010904/DTD/svg10.dtd">
<svg version="1.0" xmlns="http://www.w3.org/2000/svg"
 width="192.000000pt" height="192.000000pt" viewBox="0 0 192.000000 192.000000"
 preserveAspectRatio="xMidYMid meet">

<g transform="translate(0.000000,192.000000) scale(0.100000,-0.100000)"
fill="#000000" stroke="none">
<path d="M873 1719 c-171 -17 -310 -86 -443 -219 -78 -77 -104 -111 -138 -180
-59 -118 -82 -218 -82 -350 0 -135 24 -234 86 -356 l46 -92 -45 -135 -45 -135
140 47 140 48 57 -34 c97 -58 198 -85 342 -91 153 -5 248 15 379 80 69 34 103
60 180 138 78 77 104 111 138 180 59 118 82 218 82 350 0 132 -23 232 -82 350
-34 69 -61 103 -138 181 -83 84 -108 102 -190 142 -144 69 -273 92 -427 76z
m-121 -275 c68 -19 71 -24 114 -158 l29 -89 -58 -51 c-33 -30 -57 -60 -57 -71
0 -25 60 -125 111 -186 43 -51 139 -129 159 -129 7 0 38 20 68 45 30 25 59 45
64 45 16 0 194 -98 207 -113 17 -22 16 -139 -2 -174 -22 -42 -70 -80 -118 -93
-52 -14 -122 5 -243 68 -244 125 -403 321 -482 591 -52 177 -23 275 93 316 49
18 46 18 115 -1z"/>
</g>
</svg>
