<?xml version="1.0" standalone="no"?>
<!DOCTYPE svg PUBLIC "-//W3C//DTD SVG 20010904//EN"
 "http://www.w3.org/TR/2001/REC-SVG-20010904/DTD/svg10.dtd">
<svg version="1.0" xmlns="http://www.w3.org/2000/svg"
 width="96.000000pt" height="96.000000pt" viewBox="0 0 96.000000 96.000000"
 preserveAspectRatio="xMidYMid meet">

<g transform="translate(0.000000,96.000000) scale(0.100000,-0.100000)"
fill="#ffffff" stroke="none">
<path d="M267 553 c-4 -3 -7 -18 -7 -33 0 -20 24 -50 104 -128 57 -56 109
-102 116 -102 7 0 60 46 117 102 91 90 104 106 101 133 -2 23 -9 31 -27 33
-19 3 -42 -14 -107 -79 l-84 -84 -83 83 c-76 76 -110 95 -130 75z"/>
</g>
</svg>
