<svg xmlns="http://www.w3.org/2000/svg" width="86" height="22" viewBox="0 0 86 22"><g fill="#293742"><path d="M8.464 21.56l1.988-9.29c.12-.56.18-1.05.18-1.47 0-.44-.09-.784-.27-1.034s-.512-.374-.994-.374c-.362 0-.723.09-1.084.27-.36.18-.703.42-1.024.72-.322.3-.623.634-.904 1.003-.28.37-.522.745-.723 1.125l-1.927 9.052H0L3.193 6.5h2.8l-.15 2.65h.12c.262-.32.568-.663.92-1.025.35-.36.757-.692 1.22-.993.462-.3.98-.553 1.55-.753.573-.202 1.22-.302 1.944-.302.904 0 1.626.246 2.17.738.54.49.812 1.31.812 2.454 0 .3-.016.623-.046.964-.03.342-.096.713-.196 1.114L12.17 21.56H8.464zM22.41 6.5l-1.957 9.308c-.12.603-.18 1.104-.18 1.506 0 .4.08.713.24.934.16.22.442.332.843.332.342 0 .688-.086 1.04-.257.35-.17.688-.392 1.01-.663.32-.27.617-.57.888-.902.27-.332.497-.658.678-.98L26.9 6.502h3.705l-1.898 9.038c-.1.4-.186.874-.256 1.416-.07.542-.134 1.1-.195 1.672-.06.57-.1 1.12-.12 1.642-.02.522-.02.954 0 1.295h-2.982l-.15-2.712h-.12c-.283.384-.61.76-.98 1.132-.373.372-.784.708-1.235 1.01-.452.3-.944.54-1.476.722-.532.182-1.1.27-1.702.27-.944 0-1.707-.235-2.29-.707s-.873-1.34-.873-2.604c0-.744.1-1.557.3-2.44l2.08-9.73h3.704zM39.1 21.56l1.716-8.15c.12-.56.215-1.056.286-1.485.07-.43.105-.814.105-1.154 0-.918-.352-1.377-1.054-1.377-.342 0-.684.09-1.024.27-.343.18-.66.41-.95.69-.293.278-.563.582-.814.912s-.458.645-.618.944L34.82 21.56h-3.705L34.307 6.5H37.2l-.182 2.65h.12c.302-.32.63-.662.98-1.024.35-.36.75-.692 1.19-.993.44-.3.933-.553 1.475-.753.542-.2 1.135-.3 1.777-.3.803 0 1.41.29 1.822.872.412.582.598 1.354.557 2.32.302-.382.647-.765 1.04-1.147.39-.38.812-.722 1.265-1.023.45-.302.934-.547 1.445-.738.512-.19 1.04-.285 1.582-.285.924 0 1.63.214 2.123.646.492.432.738 1.24.738 2.424 0 .864-.15 1.99-.453 3.374l-1.896 9.037H47.08l1.776-8.423c.1-.458.18-.888.24-1.288s.09-.75.09-1.05c0-.46-.084-.81-.255-1.048-.17-.24-.457-.36-.857-.36-.32 0-.648.094-.98.284-.332.19-.647.43-.948.72-.298.29-.575.604-.825.944-.252.34-.448.66-.59.96l-1.927 9.26H39.1zM62.203 21.56l1.717-8.15c.12-.56.217-1.056.287-1.485.07-.43.105-.814.105-1.154 0-.918-.352-1.377-1.055-1.377-.342 0-.683.09-1.023.27-.342.18-.658.41-.95.69-.29.278-.56.582-.812.912s-.457.645-.616.944l-1.93 9.352H54.22L57.415 6.5h2.892l-.18 2.65h.12c.3-.32.627-.662.98-1.024.35-.36.747-.692 1.188-.993s.935-.553 1.477-.753c.544-.2 1.135-.3 1.778-.3.803 0 1.41.29 1.822.872s.598 1.354.557 2.32c.303-.382.648-.765 1.04-1.147.392-.38.813-.722 1.265-1.023.452-.302.934-.547 1.445-.738.514-.19 1.04-.285 1.582-.285.923 0 1.63.214 2.122.646.492.432.738 1.24.738 2.424 0 .864-.15 1.99-.45 3.374l-1.897 9.037h-3.707l1.778-8.423c.1-.458.18-.888.24-1.288s.09-.75.09-1.05c0-.46-.085-.81-.255-1.048-.172-.24-.458-.36-.86-.36-.32 0-.646.094-.98.284-.33.19-.645.43-.948.72-.3.29-.577.604-.828.944-.25.34-.447.66-.587.96l-1.93 9.26h-3.704zM80.79 6.5h3.704L81.3 21.56h-3.704L80.79 6.5zm.603-4.277c0-.664.215-1.176.646-1.538.43-.36.978-.542 1.642-.542.643 0 1.19.18 1.64.542.45.362.678.874.678 1.538 0 .643-.227 1.15-.678 1.52-.45.372-.998.557-1.64.557-.664 0-1.21-.185-1.643-.558-.433-.37-.647-.877-.647-1.52z"/></g></svg>